<svg xmlns="http://www.w3.org/2000/svg" width="900" height="560" viewBox="0 0 900 560" role="img" aria-label="E-commerce website preview">
  <defs>
    <linearGradient id="bg" x1="0" x2="1" y1="0" y2="1">
      <stop stop-color="#1d4ed8"/>
      <stop offset=".56" stop-color="#0ea5e9"/>
      <stop offset="1" stop-color="#67e8f9"/>
    </linearGradient>
    <filter id="shadow" x="-20%" y="-20%" width="140%" height="140%">
      <feDropShadow dx="0" dy="20" stdDeviation="22" flood-color="#1e3a8a" flood-opacity=".24"/>
    </filter>
  </defs>
  <rect width="900" height="560" rx="34" fill="url(#bg)"/>
  <circle cx="120" cy="116" r="104" fill="#fff" opacity=".14"/>
  <circle cx="784" cy="456" r="150" fill="#fff" opacity=".12"/>
  <g filter="url(#shadow)">
    <rect x="96" y="92" width="708" height="376" rx="30" fill="#fff" opacity=".94"/>
    <rect x="136" y="132" width="116" height="22" rx="11" fill="#1d4ed8"/>
    <rect x="642" y="126" width="54" height="34" rx="17" fill="#dbeafe"/>
    <circle cx="722" cy="143" r="17" fill="#0ea5e9"/>
    <rect x="136" y="194" width="628" height="70" rx="22" fill="#eff6ff"/>
    <rect x="168" y="218" width="210" height="20" rx="10" fill="#1e3a8a"/>
    <rect x="136" y="306" width="174" height="116" rx="20" fill="#e0f2fe"/>
    <rect x="364" y="306" width="174" height="116" rx="20" fill="#e0f2fe"/>
    <rect x="590" y="306" width="174" height="116" rx="20" fill="#e0f2fe"/>
    <circle cx="223" cy="354" r="28" fill="#38bdf8"/>
    <circle cx="451" cy="354" r="28" fill="#2563eb"/>
    <circle cx="677" cy="354" r="28" fill="#0891b2"/>
    <rect x="174" y="394" width="98" height="12" rx="6" fill="#1e40af" opacity=".52"/>
    <rect x="402" y="394" width="98" height="12" rx="6" fill="#1e40af" opacity=".52"/>
    <rect x="628" y="394" width="98" height="12" rx="6" fill="#1e40af" opacity=".52"/>
  </g>
</svg>
