<svg xmlns="http://www.w3.org/2000/svg" width="900" height="560" viewBox="0 0 900 560" role="img" aria-label="Cognivex technology website preview">
  <defs>
    <linearGradient id="bg" x1="0" x2="1" y1="0" y2="1">
      <stop stop-color="#0f4c81"/>
      <stop offset=".55" stop-color="#16a3b8"/>
      <stop offset="1" stop-color="#35d07f"/>
    </linearGradient>
    <filter id="shadow" x="-20%" y="-20%" width="140%" height="140%">
      <feDropShadow dx="0" dy="22" stdDeviation="22" flood-color="#083344" flood-opacity=".25"/>
    </filter>
  </defs>
  <rect width="900" height="560" rx="34" fill="url(#bg)"/>
  <circle cx="760" cy="104" r="132" fill="#fff" opacity=".15"/>
  <circle cx="104" cy="456" r="168" fill="#fff" opacity=".12"/>
  <g filter="url(#shadow)">
    <rect x="100" y="92" width="700" height="376" rx="22" fill="#ffffff" opacity=".92"/>
    <rect x="136" y="132" width="178" height="18" rx="9" fill="#0f4c81"/>
    <rect x="648" y="130" width="60" height="18" rx="9" fill="#d6f3ff"/>
    <rect x="724" y="130" width="46" height="18" rx="9" fill="#d6f3ff"/>
    <rect x="136" y="196" width="310" height="28" rx="14" fill="#111827"/>
    <rect x="136" y="240" width="254" height="16" rx="8" fill="#8ca0b3"/>
    <rect x="136" y="268" width="284" height="16" rx="8" fill="#8ca0b3"/>
    <rect x="136" y="324" width="126" height="44" rx="12" fill="#11b981"/>
    <rect x="304" y="324" width="126" height="44" rx="12" fill="#e8f7fb"/>
    <rect x="512" y="194" width="210" height="174" rx="24" fill="#eaf8ff"/>
    <path d="M558 324c26-78 74-120 142-126" fill="none" stroke="#0f4c81" stroke-width="14" stroke-linecap="round"/>
    <circle cx="574" cy="322" r="24" fill="#35d07f"/>
    <circle cx="702" cy="198" r="24" fill="#16a3b8"/>
  </g>
</svg>
