<svg xmlns="http://www.w3.org/2000/svg" width="900" height="560" viewBox="0 0 900 560" role="img" aria-label="Restaurant price comparison app preview">
  <defs>
    <linearGradient id="bg" x1="0" x2="1" y1="0" y2="1">
      <stop stop-color="#ff7043"/>
      <stop offset=".58" stop-color="#ff9f1c"/>
      <stop offset="1" stop-color="#ffd166"/>
    </linearGradient>
    <filter id="shadow" x="-20%" y="-20%" width="140%" height="140%">
      <feDropShadow dx="0" dy="20" stdDeviation="22" flood-color="#7c2d12" flood-opacity=".22"/>
    </filter>
  </defs>
  <rect width="900" height="560" rx="34" fill="url(#bg)"/>
  <path d="M0 422c118-46 218-48 346 4 132 54 251 54 374-8 67-34 125-49 180-49v191H0z" fill="#fff" opacity=".18"/>
  <g filter="url(#shadow)">
    <rect x="96" y="88" width="708" height="384" rx="30" fill="#fff" opacity=".93"/>
    <rect x="132" y="130" width="222" height="24" rx="12" fill="#7c2d12"/>
    <rect x="132" y="182" width="190" height="24" rx="12" fill="#ffedd5"/>
    <rect x="132" y="222" width="246" height="76" rx="18" fill="#fff7ed"/>
    <circle cx="170" cy="260" r="26" fill="#fb923c"/>
    <rect x="214" y="240" width="118" height="14" rx="7" fill="#9a3412"/>
    <rect x="214" y="266" width="86" height="12" rx="6" fill="#c2410c" opacity=".45"/>
    <rect x="132" y="326" width="246" height="76" rx="18" fill="#fff7ed"/>
    <circle cx="170" cy="364" r="26" fill="#f97316"/>
    <rect x="214" y="344" width="122" height="14" rx="7" fill="#9a3412"/>
    <rect x="214" y="370" width="96" height="12" rx="6" fill="#c2410c" opacity=".45"/>
    <rect x="472" y="154" width="246" height="248" rx="32" fill="#fff7ed"/>
    <circle cx="595" cy="264" r="78" fill="#ffedd5"/>
    <circle cx="595" cy="264" r="54" fill="#fb923c"/>
    <path d="M548 260h96M596 212v96" stroke="#fff" stroke-width="16" stroke-linecap="round"/>
    <rect x="514" y="350" width="164" height="22" rx="11" fill="#9a3412"/>
  </g>
</svg>
