<svg xmlns="http://www.w3.org/2000/svg" width="900" height="560" viewBox="0 0 900 560" role="img" aria-label="Portfolio website preview">
  <defs>
    <linearGradient id="bg" x1="0" x2="1" y1="0" y2="1">
      <stop stop-color="#6d28d9"/>
      <stop offset=".52" stop-color="#a855f7"/>
      <stop offset="1" stop-color="#f472b6"/>
    </linearGradient>
    <filter id="shadow" x="-20%" y="-20%" width="140%" height="140%">
      <feDropShadow dx="0" dy="20" stdDeviation="22" flood-color="#581c87" flood-opacity=".24"/>
    </filter>
  </defs>
  <rect width="900" height="560" rx="34" fill="url(#bg)"/>
  <path d="M90 120h720v320H90z" fill="#fff" opacity=".08"/>
  <g filter="url(#shadow)">
    <rect x="110" y="92" width="680" height="376" rx="28" fill="#fff" opacity=".94"/>
    <rect x="148" y="132" width="54" height="20" rx="10" fill="#6d28d9"/>
    <rect x="636" y="132" width="40" height="14" rx="7" fill="#e9d5ff"/>
    <rect x="694" y="132" width="40" height="14" rx="7" fill="#e9d5ff"/>
    <rect x="148" y="204" width="272" height="34" rx="17" fill="#111827"/>
    <rect x="148" y="258" width="232" height="16" rx="8" fill="#8b5cf6" opacity=".45"/>
    <rect x="148" y="286" width="270" height="16" rx="8" fill="#8b5cf6" opacity=".3"/>
    <rect x="148" y="344" width="132" height="44" rx="13" fill="#a855f7"/>
    <rect x="506" y="190" width="172" height="172" rx="34" fill="#f3e8ff"/>
    <circle cx="592" cy="276" r="58" fill="#c084fc"/>
    <path d="M548 342c24-34 62-50 116-50" stroke="#7e22ce" stroke-width="12" stroke-linecap="round" fill="none"/>
  </g>
</svg>
