<svg xmlns="http://www.w3.org/2000/svg" width="900" height="560" viewBox="0 0 900 560" role="img" aria-label="AI food recommendation system preview">
  <defs>
    <linearGradient id="bg" x1="0" x2="1" y1="0" y2="1">
      <stop stop-color="#0f766e"/>
      <stop offset=".6" stop-color="#22c55e"/>
      <stop offset="1" stop-color="#7dd3fc"/>
    </linearGradient>
    <filter id="shadow" x="-20%" y="-20%" width="140%" height="140%">
      <feDropShadow dx="0" dy="20" stdDeviation="22" flood-color="#064e3b" flood-opacity=".24"/>
    </filter>
  </defs>
  <rect width="900" height="560" rx="34" fill="url(#bg)"/>
  <circle cx="742" cy="94" r="126" fill="#fff" opacity=".16"/>
  <circle cx="154" cy="470" r="150" fill="#fff" opacity=".12"/>
  <g filter="url(#shadow)">
    <rect x="96" y="90" width="708" height="380" rx="30" fill="#fff" opacity=".93"/>
    <rect x="138" y="132" width="260" height="22" rx="11" fill="#064e3b"/>
    <rect x="138" y="184" width="278" height="238" rx="26" fill="#ecfdf5"/>
    <circle cx="277" cy="288" r="78" fill="#bbf7d0"/>
    <path d="M228 292c42-56 92-58 102 0 10 54-76 72-102 0z" fill="#22c55e"/>
    <path d="M280 223c8 20 6 36-10 50" fill="none" stroke="#064e3b" stroke-width="12" stroke-linecap="round"/>
    <rect x="500" y="184" width="238" height="62" rx="18" fill="#ecfdf5"/>
    <rect x="532" y="207" width="126" height="16" rx="8" fill="#047857"/>
    <rect x="500" y="274" width="238" height="62" rx="18" fill="#f0fdfa"/>
    <rect x="532" y="297" width="156" height="16" rx="8" fill="#0f766e"/>
    <rect x="500" y="364" width="238" height="58" rx="18" fill="#ecfeff"/>
    <rect x="532" y="386" width="104" height="16" rx="8" fill="#0891b2"/>
    <path d="M448 244c28 0 28 122 0 122" fill="none" stroke="#0f766e" stroke-width="10" stroke-linecap="round" stroke-dasharray="18 18"/>
  </g>
</svg>
